<?xml version="1.0" encoding="utf-8"?>
<!-- Generator: Adobe Illustrator 18.1.0, SVG Export Plug-In . SVG Version: 6.00 Build 0)  -->
<svg version="1.0" id="Layer_1" xmlns="http://www.w3.org/2000/svg" xmlns:xlink="http://www.w3.org/1999/xlink" x="0px" y="0px"
	 viewBox="0 0 150 150" enable-background="new 0 0 150 150" xml:space="preserve">
<g>
	<g>
		<path fill="#231F20" d="M113,36.2c0,0,50.5,21.8-19.3,55.3c0,0,45.4-6.1,51.1-31.5C144.9,60.1,150.6,41.3,113,36.2z"/>
		
			<radialGradient id="SVGID_1_" cx="900.7532" cy="-669.0359" r="129.0732" gradientTransform="matrix(0.8705 -0.4922 0.4922 0.8705 -381.8935 1089.8761)" gradientUnits="userSpaceOnUse">
			<stop  offset="0" style="stop-color:#8BC53F"/>
			<stop  offset="0.3333" style="stop-color:#50B749"/>
			<stop  offset="0.7091" style="stop-color:#009345"/>
			<stop  offset="1" style="stop-color:#006838"/>
		</radialGradient>
		<path fill="url(#SVGID_1_)" d="M143.3,74c-17.7,27.9-71.8,30.5-71.8,30.5c-76.7,3.4-44.7-31.3-44.7-31.3l0,0
			C10.2,77.9,6.3,88,6.3,88c-6.8,28.2,53.6,25.5,53.6,25.5c25.5-2,43.3-6.7,55.6-12.3c-28.9,16.7-66.6,21.3-66.6,21.3
			c88.1-2.6,93.9-43.5,94.3-47.9C143.3,74.2,143.3,74,143.3,74z"/>
	</g>
	<g>
		<path d="M77.4,53.8L66.2,57c0,0-10.9,3.4-11.8,15.1c0,0,31.6-7.8,46.5-14C100.8,58.1,87.9,50.5,77.4,53.8z"/>
		<polygon points="39.6,73.4 38.3,76.8 42.7,81.8 44.4,78.8 44.1,78.5 		"/>
		<path d="M100.3,41.4C98.7,41,96.9,41,95.2,41c-0.5,0-1,0-1.6,0c-0.5,0-1.1,0-1.6,0c-1.1,0.1-2.6,0.1-4.1-0.1
			c-3.4-0.4-6.1-0.9-8.5-1.3c-2.9-0.5-5.3-1-7.5-0.9c-0.7,0-1.4,0.1-2.1,0.2c-7.6,1.2-18.9,5-23.6,8.6c-2,1.6-9.8,11.1-11.7,16
			c-1.6,4.1-1,15.6-0.3,18.5c1.8,7,9.4,12.4,17.9,13.2l0,0c1.6,2.9,6,3.5,9.6,1.5c2.6-1.5,4.1-3.8,4.3-6.1c0.2-0.2,0.4-0.4,0.6-0.6
			c1.2-1.2,2.4-2.3,3.7-3.1c2.3-1.4,5.9-2.6,9.7-3.9c1.7-0.6,3.5-1.2,5.2-1.8c2.1-0.7,4.2-1.6,6.2-2.5c3.1-1.3,6-2.5,8.3-3.1
			c0,0.1,0,0.1,0.1,0.1c1.6,2.9,5.9,3.5,9.5,1.4c2.1-1.2,3.5-3,4-4.9v0c3.3-2.9,5.2-7.9,5.3-11.8C119.1,50.3,109.4,43.4,100.3,41.4z
			 M60.9,95c-2.4,1.4-5.3,0.9-6.4-1c-1.1-1.9,0-4.6,2.4-6c2.4-1.4,5.3-0.9,6.4,1C64.5,90.9,63.4,93.6,60.9,95z M108.4,75.5
			c-2.4,1.4-5.3,0.9-6.4-1c-1.1-1.9,0-4.6,2.4-6c2.4-1.4,5.2-0.9,6.3,1C111.9,71.4,110.8,74.1,108.4,75.5z M113.5,71.6
			c0-0.1,0-0.1,0-0.1S113.5,71.5,113.5,71.6z M113.6,71.1c0-0.1,0-0.1,0-0.2C113.6,70.9,113.6,71,113.6,71.1z M116.3,60.5
			c-0.1,2.3-1.1,5.8-3,8.4c0.1,0.2,0.1,0.3,0.2,0.5c-0.1-0.4-0.3-0.7-0.4-1.1c-1.6-2.9-5.9-3.5-9.5-1.5c-2.6,1.5-4.2,4-4.2,6.4l0,0
			c-2.4,0.6-5.4,1.9-8.6,3.2c-2,0.9-4.1,1.7-6.1,2.5c-1.7,0.6-3.4,1.2-5.2,1.8c-3.9,1.3-7.6,2.6-10.2,4.1c-1.3,0.8-2.5,1.9-3.6,3
			l0,0c-1.7-2.9-6-3.5-9.7-1.4c-2.7,1.5-4.2,4-4.3,6.4c-7.1-1-13.4-5.5-14.9-11.3c-0.7-2.4-1.1-13.5,0.2-17c0.3-0.8,0.9-1.9,1.5-3
			c2.8,7.1,11.3,10.1,11.3,10.1c0-4.2,4-10.5,4-10.5c-6.1-3.3-8.4-6.6-9.2-8.1c1.4-1.7,2.6-3,3.1-3.4c3.9-3,14.4-6.8,22.4-8.2
			c0.6-0.1,1.1-0.1,1.7-0.2c2,0,4.3,0.4,7.1,0.9c0.3,0.1,0.6,0.1,1,0.2c2.2,1.4,4.9,3.7,7.4,7.8l0.3,0c0,0,8.4,0.4,16.1,5
			c0,0,4.7-6-11.1-11.5c0.3,0,0.7,0,1,0c0.5,0,1,0,1.6-0.1c1.5,0,3.1,0,4.5,0.3C107.9,45.6,116.6,51.6,116.3,60.5z M113.6,70.4
			c0-0.1,0-0.2,0-0.3C113.6,70.2,113.6,70.3,113.6,70.4z M113.5,69.8c0-0.1,0-0.2-0.1-0.3C113.5,69.7,113.5,69.8,113.5,69.8z"/>
	</g>
</g>
</svg>
